<?xml version="1.0" encoding="UTF-8" standalone="no"?>
<!DOCTYPE svg PUBLIC "-//W3C//DTD SVG 1.1//EN" "http://www.w3.org/Graphics/SVG/1.1/DTD/svg11.dtd">
<svg width="100%" height="100%" viewBox="0 0 233 48" version="1.1" xmlns="http://www.w3.org/2000/svg" xmlns:xlink="http://www.w3.org/1999/xlink" xml:space="preserve" xmlns:serif="http://www.serif.com/" style="fill-rule:evenodd;clip-rule:evenodd;stroke-linejoin:round;stroke-miterlimit:2;">
    <g transform="matrix(1,0,0,1,-25.2558,-198.617)">
        <g transform="matrix(1,0,0,1,64.4958,246.177)">
            <path d="M0,-47.56L-27.968,-47.56C-34.183,-47.56 -39.24,-42.504 -39.24,-36.288L-39.24,-16.408C-39.24,-10.193 -34.183,-5.136 -27.968,-5.136L-25.314,-5.136C-23.504,-5.136 -22.023,-6.617 -22.023,-8.427L-22.023,-11.597C-22.023,-13.406 -23.504,-14.887 -25.314,-14.887L-27.968,-14.887C-28.806,-14.887 -29.488,-15.569 -29.488,-16.408L-29.488,-36.288C-29.488,-37.127 -28.806,-37.809 -27.968,-37.809L0,-37.809C0.839,-37.809 1.522,-37.127 1.522,-36.288L1.522,-16.408C1.522,-15.569 0.839,-14.887 0,-14.887L-12.054,-14.887C-13.863,-14.887 -15.344,-13.406 -15.344,-11.597L-15.344,-3.291C-15.344,-1.48 -13.863,0 -12.054,0L-8.883,0C-7.073,0 -5.593,-1.48 -5.593,-3.291L-5.593,-5.136L0,-5.136C6.217,-5.136 11.274,-10.193 11.274,-16.408L11.274,-36.288C11.274,-42.504 6.217,-47.56 0,-47.56M190.422,-47.56L154.472,-47.56C148.257,-47.56 143.2,-42.504 143.2,-36.288L143.2,-16.408C143.2,-10.193 148.257,-5.136 154.472,-5.136L190.422,-5.137C192.232,-5.137 193.713,-6.618 193.713,-8.427L193.713,-11.597C193.713,-13.407 192.232,-14.888 190.422,-14.888L154.472,-14.887C153.634,-14.887 152.951,-15.569 152.951,-16.408L152.951,-36.288C152.951,-37.127 153.634,-37.809 154.472,-37.809L190.422,-37.809C192.232,-37.809 193.713,-39.29 193.713,-41.099L193.713,-44.269C193.713,-46.079 192.232,-47.56 190.422,-47.56M190.422,-31.224L162.947,-31.224C161.137,-31.224 159.656,-29.743 159.656,-27.933L159.656,-24.763C159.656,-22.954 161.137,-21.473 162.947,-21.473L190.422,-21.473C192.232,-21.473 193.713,-22.954 193.713,-24.763L193.713,-27.933C193.713,-29.743 192.232,-31.224 190.422,-31.224M72.087,-44.269C72.087,-46.079 70.606,-47.56 68.796,-47.56L65.626,-47.56C63.817,-47.56 62.335,-46.079 62.335,-44.269L62.335,-16.408C62.335,-15.57 61.653,-14.887 60.813,-14.887L32.846,-14.887C32.007,-14.887 31.325,-15.57 31.325,-16.408L31.325,-44.269C31.325,-46.079 29.844,-47.56 28.034,-47.56L24.864,-47.56C23.054,-47.56 21.573,-46.079 21.573,-44.269L21.573,-16.408C21.573,-10.192 26.631,-5.136 32.846,-5.136L60.813,-5.136C67.029,-5.136 72.087,-10.192 72.087,-16.408L72.087,-44.269ZM132.9,-36.288C132.9,-42.504 127.843,-47.56 121.626,-47.56L85.677,-47.56C83.868,-47.56 82.387,-46.08 82.387,-44.269L82.387,-8.427C82.387,-6.618 83.868,-5.137 85.677,-5.137L121.626,-5.136C127.843,-5.136 132.9,-10.193 132.9,-16.408L132.9,-19.941C132.9,-22.32 132.16,-24.528 130.898,-26.348C132.16,-28.168 132.9,-30.376 132.9,-32.754L132.9,-36.288ZM123.149,-32.754C123.149,-31.915 122.466,-31.233 121.626,-31.233L102.131,-31.224C100.322,-31.224 98.84,-29.743 98.84,-27.933L98.84,-24.763C98.84,-22.954 100.322,-21.473 102.131,-21.473L121.626,-21.463C122.466,-21.463 123.149,-20.781 123.149,-19.941L123.149,-16.408C123.149,-15.569 122.466,-14.887 121.626,-14.887L93.659,-14.887C92.821,-14.887 92.139,-15.569 92.138,-16.406L92.138,-36.289C92.139,-37.127 92.821,-37.809 93.659,-37.809L121.626,-37.809C122.466,-37.809 123.149,-37.127 123.149,-36.288L123.149,-32.754Z" style="fill:rgb(255,210,0);fill-rule:nonzero;"/>
        </g>
    </g>
</svg>
